<mxfile host="app.diagrams.net" modified="2021-08-12T16:42:43.941Z" agent="5.0 (Windows NT 10.0; Win64; x64) AppleWebKit/537.36 (KHTML, like Gecko) Chrome/92.0.4515.131 Safari/537.36" etag="Z3MMSLX2bEsvbwkurqfJ" version="14.6.6" type="github">
  <diagram name="Page-1" id="822b0af5-4adb-64df-f703-e8dfc1f81529">
    <mxGraphModel dx="1422" dy="705" grid="1" gridSize="10" guides="1" tooltips="1" connect="1" arrows="1" fold="1" page="1" pageScale="1" pageWidth="1100" pageHeight="850" background="none" math="0" shadow="0">
      <root>
        <mxCell id="0" />
        <mxCell id="1" parent="0" />
        <mxCell id="Qj1fwdqKHC8h-Qbw6WAU-61" style="edgeStyle=orthogonalEdgeStyle;rounded=0;orthogonalLoop=1;jettySize=auto;html=1;entryX=0;entryY=0.5;entryDx=0;entryDy=0;entryPerimeter=0;strokeColor=#000000;exitX=0.439;exitY=1.011;exitDx=0;exitDy=0;exitPerimeter=0;" edge="1" parent="1" source="7d933b09d9755ecc-4" target="Qj1fwdqKHC8h-Qbw6WAU-59">
          <mxGeometry relative="1" as="geometry" />
        </mxCell>
        <mxCell id="7d933b09d9755ecc-4" value="" style="verticalLabelPosition=bottom;aspect=fixed;html=1;verticalAlign=top;strokeColor=none;shape=mxgraph.citrix.directory_server;rounded=0;shadow=0;comic=0;fontFamily=Verdana;" parent="1" vertex="1">
          <mxGeometry x="250" y="280" width="66.1" height="90" as="geometry" />
        </mxCell>
        <mxCell id="Qj1fwdqKHC8h-Qbw6WAU-58" style="edgeStyle=orthogonalEdgeStyle;rounded=0;orthogonalLoop=1;jettySize=auto;html=1;entryX=0;entryY=0.5;entryDx=0;entryDy=0;entryPerimeter=0;strokeColor=#000000;" edge="1" parent="1" source="Qj1fwdqKHC8h-Qbw6WAU-1" target="Qj1fwdqKHC8h-Qbw6WAU-2">
          <mxGeometry relative="1" as="geometry" />
        </mxCell>
        <mxCell id="Qj1fwdqKHC8h-Qbw6WAU-99" value="" style="edgeStyle=orthogonalEdgeStyle;rounded=0;orthogonalLoop=1;jettySize=auto;html=1;strokeColor=#000000;" edge="1" parent="1" source="Qj1fwdqKHC8h-Qbw6WAU-1" target="Qj1fwdqKHC8h-Qbw6WAU-2">
          <mxGeometry relative="1" as="geometry" />
        </mxCell>
        <mxCell id="Qj1fwdqKHC8h-Qbw6WAU-1" value="" style="shape=umlActor;verticalLabelPosition=bottom;verticalAlign=top;html=1;outlineConnect=0;" vertex="1" parent="1">
          <mxGeometry x="550" y="20" width="30" height="60" as="geometry" />
        </mxCell>
        <mxCell id="Qj1fwdqKHC8h-Qbw6WAU-14" style="edgeStyle=orthogonalEdgeStyle;rounded=0;orthogonalLoop=1;jettySize=auto;html=1;exitX=1;exitY=0.5;exitDx=0;exitDy=0;exitPerimeter=0;entryX=0.492;entryY=0.023;entryDx=0;entryDy=0;entryPerimeter=0;" edge="1" parent="1" source="Qj1fwdqKHC8h-Qbw6WAU-2" target="7d933b09d9755ecc-4">
          <mxGeometry relative="1" as="geometry">
            <Array as="points">
              <mxPoint x="565" y="230" />
              <mxPoint x="282" y="230" />
            </Array>
          </mxGeometry>
        </mxCell>
        <mxCell id="Qj1fwdqKHC8h-Qbw6WAU-2" value="" style="fillColor=#999999;verticalLabelPosition=bottom;html=1;strokeColor=#ffffff;verticalAlign=top;align=center;points=[[0.145,0.145,0],[0.5,0,0],[0.855,0.145,0],[1,0.5,0],[0.855,0.855,0],[0.5,1,0],[0.145,0.855,0],[0,0.5,0]];pointerEvents=1;shape=mxgraph.cisco_safe.compositeIcon;bgIcon=ellipse;resIcon=mxgraph.cisco_safe.capability.load_balancer;direction=south;" vertex="1" parent="1">
          <mxGeometry x="543.5" y="160" width="43" height="47.75" as="geometry" />
        </mxCell>
        <mxCell id="Qj1fwdqKHC8h-Qbw6WAU-15" value="" style="endArrow=none;dashed=1;html=1;dashPattern=1 3;strokeWidth=2;" edge="1" parent="1">
          <mxGeometry width="50" height="50" relative="1" as="geometry">
            <mxPoint x="440" y="480" as="sourcePoint" />
            <mxPoint x="440" y="80" as="targetPoint" />
          </mxGeometry>
        </mxCell>
        <mxCell id="Qj1fwdqKHC8h-Qbw6WAU-16" value="" style="endArrow=none;dashed=1;html=1;dashPattern=1 3;strokeWidth=2;" edge="1" parent="1">
          <mxGeometry width="50" height="50" relative="1" as="geometry">
            <mxPoint x="120" y="480" as="sourcePoint" />
            <mxPoint x="440" y="480" as="targetPoint" />
          </mxGeometry>
        </mxCell>
        <mxCell id="Qj1fwdqKHC8h-Qbw6WAU-17" value="" style="endArrow=none;dashed=1;html=1;dashPattern=1 3;strokeWidth=2;" edge="1" parent="1">
          <mxGeometry width="50" height="50" relative="1" as="geometry">
            <mxPoint x="120" y="475" as="sourcePoint" />
            <mxPoint x="120" y="200" as="targetPoint" />
          </mxGeometry>
        </mxCell>
        <mxCell id="Qj1fwdqKHC8h-Qbw6WAU-18" value="" style="endArrow=none;dashed=1;html=1;dashPattern=1 3;strokeWidth=2;startArrow=none;" edge="1" parent="1" source="Qj1fwdqKHC8h-Qbw6WAU-19">
          <mxGeometry width="50" height="50" relative="1" as="geometry">
            <mxPoint x="120" y="82.25" as="sourcePoint" />
            <mxPoint x="440" y="82.25" as="targetPoint" />
          </mxGeometry>
        </mxCell>
        <mxCell id="Qj1fwdqKHC8h-Qbw6WAU-19" value="Availability Zone A" style="text;html=1;strokeColor=none;fillColor=none;align=center;verticalAlign=middle;whiteSpace=wrap;rounded=0;" vertex="1" parent="1">
          <mxGeometry x="120" y="70" width="120" height="20" as="geometry" />
        </mxCell>
        <mxCell id="Qj1fwdqKHC8h-Qbw6WAU-20" value="" style="endArrow=none;dashed=1;html=1;dashPattern=1 3;strokeWidth=2;entryX=0;entryY=0.5;entryDx=0;entryDy=0;" edge="1" parent="1" target="Qj1fwdqKHC8h-Qbw6WAU-19">
          <mxGeometry width="50" height="50" relative="1" as="geometry">
            <mxPoint x="120" y="200" as="sourcePoint" />
            <mxPoint x="440" y="200" as="targetPoint" />
          </mxGeometry>
        </mxCell>
        <mxCell id="Qj1fwdqKHC8h-Qbw6WAU-34" value="" style="endArrow=none;dashed=1;html=1;dashPattern=1 3;strokeWidth=2;" edge="1" parent="1">
          <mxGeometry width="50" height="50" relative="1" as="geometry">
            <mxPoint x="130" y="210" as="sourcePoint" />
            <mxPoint x="130" y="210" as="targetPoint" />
          </mxGeometry>
        </mxCell>
        <mxCell id="Qj1fwdqKHC8h-Qbw6WAU-36" value="" style="endArrow=none;dashed=1;html=1;dashPattern=1 3;strokeWidth=2;" edge="1" parent="1">
          <mxGeometry width="50" height="50" relative="1" as="geometry">
            <mxPoint x="1000" y="482.25" as="sourcePoint" />
            <mxPoint x="1000" y="80" as="targetPoint" />
          </mxGeometry>
        </mxCell>
        <mxCell id="Qj1fwdqKHC8h-Qbw6WAU-37" value="" style="endArrow=none;dashed=1;html=1;dashPattern=1 3;strokeWidth=2;" edge="1" parent="1">
          <mxGeometry width="50" height="50" relative="1" as="geometry">
            <mxPoint x="680" y="482.25" as="sourcePoint" />
            <mxPoint x="1000" y="482.25" as="targetPoint" />
          </mxGeometry>
        </mxCell>
        <mxCell id="Qj1fwdqKHC8h-Qbw6WAU-38" value="" style="endArrow=none;dashed=1;html=1;dashPattern=1 3;strokeWidth=2;" edge="1" parent="1">
          <mxGeometry width="50" height="50" relative="1" as="geometry">
            <mxPoint x="680" y="477.25" as="sourcePoint" />
            <mxPoint x="680" y="202.25" as="targetPoint" />
          </mxGeometry>
        </mxCell>
        <mxCell id="Qj1fwdqKHC8h-Qbw6WAU-39" value="" style="endArrow=none;dashed=1;html=1;dashPattern=1 3;strokeWidth=2;startArrow=none;" edge="1" source="Qj1fwdqKHC8h-Qbw6WAU-40" parent="1">
          <mxGeometry width="50" height="50" relative="1" as="geometry">
            <mxPoint x="680" y="82.25" as="sourcePoint" />
            <mxPoint x="1000" y="82.25" as="targetPoint" />
          </mxGeometry>
        </mxCell>
        <mxCell id="Qj1fwdqKHC8h-Qbw6WAU-40" value="Availability Zone B" style="text;html=1;strokeColor=none;fillColor=none;align=center;verticalAlign=middle;whiteSpace=wrap;rounded=0;" vertex="1" parent="1">
          <mxGeometry x="680" y="70" width="120" height="20" as="geometry" />
        </mxCell>
        <mxCell id="Qj1fwdqKHC8h-Qbw6WAU-41" value="" style="endArrow=none;dashed=1;html=1;dashPattern=1 3;strokeWidth=2;entryX=0;entryY=1;entryDx=0;entryDy=0;" edge="1" target="Qj1fwdqKHC8h-Qbw6WAU-40" parent="1">
          <mxGeometry width="50" height="50" relative="1" as="geometry">
            <mxPoint x="680" y="202.25" as="sourcePoint" />
            <mxPoint x="1000" y="202.25" as="targetPoint" />
          </mxGeometry>
        </mxCell>
        <mxCell id="Qj1fwdqKHC8h-Qbw6WAU-49" value="" style="endArrow=none;dashed=1;html=1;strokeColor=#3333FF;" edge="1" parent="1">
          <mxGeometry width="50" height="50" relative="1" as="geometry">
            <mxPoint x="130" y="390" as="sourcePoint" />
            <mxPoint x="130" y="250" as="targetPoint" />
          </mxGeometry>
        </mxCell>
        <mxCell id="Qj1fwdqKHC8h-Qbw6WAU-50" value="" style="endArrow=none;dashed=1;html=1;strokeColor=#3333FF;" edge="1" parent="1">
          <mxGeometry width="50" height="50" relative="1" as="geometry">
            <mxPoint x="130" y="250" as="sourcePoint" />
            <mxPoint x="990" y="240" as="targetPoint" />
          </mxGeometry>
        </mxCell>
        <mxCell id="Qj1fwdqKHC8h-Qbw6WAU-56" value="" style="endArrow=none;dashed=1;html=1;strokeColor=#3333FF;" edge="1" parent="1">
          <mxGeometry width="50" height="50" relative="1" as="geometry">
            <mxPoint x="990" y="399" as="sourcePoint" />
            <mxPoint x="990" y="249" as="targetPoint" />
          </mxGeometry>
        </mxCell>
        <mxCell id="Qj1fwdqKHC8h-Qbw6WAU-57" value="" style="endArrow=none;dashed=1;html=1;strokeColor=#3333FF;" edge="1" parent="1">
          <mxGeometry width="50" height="50" relative="1" as="geometry">
            <mxPoint x="130" y="400" as="sourcePoint" />
            <mxPoint x="990" y="400" as="targetPoint" />
          </mxGeometry>
        </mxCell>
        <mxCell id="Qj1fwdqKHC8h-Qbw6WAU-59" value="EFS" style="strokeWidth=2;html=1;shape=mxgraph.flowchart.database;whiteSpace=wrap;" vertex="1" parent="1">
          <mxGeometry x="535" y="530" width="60" height="60" as="geometry" />
        </mxCell>
        <mxCell id="Qj1fwdqKHC8h-Qbw6WAU-68" value="" style="endArrow=none;dashed=1;html=1;strokeColor=#000000;" edge="1" parent="1">
          <mxGeometry width="50" height="50" relative="1" as="geometry">
            <mxPoint x="140" y="210" as="sourcePoint" />
            <mxPoint x="140" y="110" as="targetPoint" />
          </mxGeometry>
        </mxCell>
        <mxCell id="Qj1fwdqKHC8h-Qbw6WAU-69" value="" style="endArrow=none;dashed=1;html=1;strokeColor=#000000;startArrow=none;" edge="1" parent="1" source="Qj1fwdqKHC8h-Qbw6WAU-76">
          <mxGeometry width="50" height="50" relative="1" as="geometry">
            <mxPoint x="140" y="110" as="sourcePoint" />
            <mxPoint x="420" y="110" as="targetPoint" />
          </mxGeometry>
        </mxCell>
        <mxCell id="Qj1fwdqKHC8h-Qbw6WAU-70" value="" style="endArrow=none;dashed=1;html=1;strokeColor=#000000;" edge="1" parent="1">
          <mxGeometry width="50" height="50" relative="1" as="geometry">
            <mxPoint x="420" y="210" as="sourcePoint" />
            <mxPoint x="420" y="110" as="targetPoint" />
          </mxGeometry>
        </mxCell>
        <mxCell id="Qj1fwdqKHC8h-Qbw6WAU-71" value="" style="endArrow=none;dashed=1;html=1;strokeColor=#000000;" edge="1" parent="1">
          <mxGeometry width="50" height="50" relative="1" as="geometry">
            <mxPoint x="140" y="210" as="sourcePoint" />
            <mxPoint x="420" y="210" as="targetPoint" />
          </mxGeometry>
        </mxCell>
        <mxCell id="Qj1fwdqKHC8h-Qbw6WAU-72" value="" style="endArrow=none;dashed=1;html=1;strokeColor=#000000;" edge="1" parent="1">
          <mxGeometry width="50" height="50" relative="1" as="geometry">
            <mxPoint x="700" y="210" as="sourcePoint" />
            <mxPoint x="700" y="110" as="targetPoint" />
          </mxGeometry>
        </mxCell>
        <mxCell id="Qj1fwdqKHC8h-Qbw6WAU-73" value="" style="endArrow=none;dashed=1;html=1;strokeColor=#000000;startArrow=none;" edge="1" parent="1" source="Qj1fwdqKHC8h-Qbw6WAU-78">
          <mxGeometry width="50" height="50" relative="1" as="geometry">
            <mxPoint x="700" y="110" as="sourcePoint" />
            <mxPoint x="980" y="110" as="targetPoint" />
          </mxGeometry>
        </mxCell>
        <mxCell id="Qj1fwdqKHC8h-Qbw6WAU-74" value="" style="endArrow=none;dashed=1;html=1;strokeColor=#000000;" edge="1" parent="1">
          <mxGeometry width="50" height="50" relative="1" as="geometry">
            <mxPoint x="980" y="210" as="sourcePoint" />
            <mxPoint x="980" y="110" as="targetPoint" />
          </mxGeometry>
        </mxCell>
        <mxCell id="Qj1fwdqKHC8h-Qbw6WAU-75" value="" style="endArrow=none;dashed=1;html=1;strokeColor=#000000;" edge="1" parent="1">
          <mxGeometry width="50" height="50" relative="1" as="geometry">
            <mxPoint x="700" y="210" as="sourcePoint" />
            <mxPoint x="980" y="210" as="targetPoint" />
          </mxGeometry>
        </mxCell>
        <mxCell id="Qj1fwdqKHC8h-Qbw6WAU-76" value="Public Subnet" style="text;html=1;strokeColor=none;fillColor=none;align=center;verticalAlign=middle;whiteSpace=wrap;rounded=0;" vertex="1" parent="1">
          <mxGeometry x="140" y="100" width="120" height="20" as="geometry" />
        </mxCell>
        <mxCell id="Qj1fwdqKHC8h-Qbw6WAU-77" value="" style="endArrow=none;dashed=1;html=1;strokeColor=#000000;" edge="1" parent="1" target="Qj1fwdqKHC8h-Qbw6WAU-76">
          <mxGeometry width="50" height="50" relative="1" as="geometry">
            <mxPoint x="140" y="110" as="sourcePoint" />
            <mxPoint x="420" y="110" as="targetPoint" />
          </mxGeometry>
        </mxCell>
        <mxCell id="Qj1fwdqKHC8h-Qbw6WAU-78" value="Public Subnet" style="text;html=1;strokeColor=none;fillColor=none;align=center;verticalAlign=middle;whiteSpace=wrap;rounded=0;" vertex="1" parent="1">
          <mxGeometry x="710" y="100" width="120" height="20" as="geometry" />
        </mxCell>
        <mxCell id="Qj1fwdqKHC8h-Qbw6WAU-80" value="" style="endArrow=none;dashed=1;html=1;strokeColor=#000000;" edge="1" parent="1" target="Qj1fwdqKHC8h-Qbw6WAU-78">
          <mxGeometry width="50" height="50" relative="1" as="geometry">
            <mxPoint x="700" y="110" as="sourcePoint" />
            <mxPoint x="980" y="110" as="targetPoint" />
          </mxGeometry>
        </mxCell>
        <mxCell id="Qj1fwdqKHC8h-Qbw6WAU-81" value="" style="endArrow=none;dashed=1;html=1;strokeColor=#000000;" edge="1" parent="1">
          <mxGeometry width="50" height="50" relative="1" as="geometry">
            <mxPoint x="142.34" y="374.29" as="sourcePoint" />
            <mxPoint x="142.34" y="274.29" as="targetPoint" />
          </mxGeometry>
        </mxCell>
        <mxCell id="Qj1fwdqKHC8h-Qbw6WAU-82" value="" style="endArrow=none;dashed=1;html=1;strokeColor=#000000;startArrow=none;" edge="1" parent="1" source="Qj1fwdqKHC8h-Qbw6WAU-89">
          <mxGeometry width="50" height="50" relative="1" as="geometry">
            <mxPoint x="142.34" y="274.29" as="sourcePoint" />
            <mxPoint x="422.34" y="274.29" as="targetPoint" />
          </mxGeometry>
        </mxCell>
        <mxCell id="Qj1fwdqKHC8h-Qbw6WAU-83" value="" style="endArrow=none;dashed=1;html=1;strokeColor=#000000;" edge="1" parent="1">
          <mxGeometry width="50" height="50" relative="1" as="geometry">
            <mxPoint x="422.34" y="374.29" as="sourcePoint" />
            <mxPoint x="422.34" y="274.29" as="targetPoint" />
          </mxGeometry>
        </mxCell>
        <mxCell id="Qj1fwdqKHC8h-Qbw6WAU-84" value="" style="endArrow=none;dashed=1;html=1;strokeColor=#000000;" edge="1" parent="1">
          <mxGeometry width="50" height="50" relative="1" as="geometry">
            <mxPoint x="142.34" y="374.29" as="sourcePoint" />
            <mxPoint x="422.34" y="374.29" as="targetPoint" />
          </mxGeometry>
        </mxCell>
        <mxCell id="Qj1fwdqKHC8h-Qbw6WAU-85" value="" style="endArrow=none;dashed=1;html=1;strokeColor=#000000;" edge="1" parent="1">
          <mxGeometry width="50" height="50" relative="1" as="geometry">
            <mxPoint x="700" y="380" as="sourcePoint" />
            <mxPoint x="700" y="280" as="targetPoint" />
          </mxGeometry>
        </mxCell>
        <mxCell id="Qj1fwdqKHC8h-Qbw6WAU-86" value="" style="endArrow=none;dashed=1;html=1;strokeColor=#000000;startArrow=none;" edge="1" parent="1">
          <mxGeometry width="50" height="50" relative="1" as="geometry">
            <mxPoint x="830" y="280" as="sourcePoint" />
            <mxPoint x="980" y="280" as="targetPoint" />
          </mxGeometry>
        </mxCell>
        <mxCell id="Qj1fwdqKHC8h-Qbw6WAU-87" value="" style="endArrow=none;dashed=1;html=1;strokeColor=#000000;" edge="1" parent="1">
          <mxGeometry width="50" height="50" relative="1" as="geometry">
            <mxPoint x="980" y="380" as="sourcePoint" />
            <mxPoint x="980" y="280" as="targetPoint" />
          </mxGeometry>
        </mxCell>
        <mxCell id="Qj1fwdqKHC8h-Qbw6WAU-88" value="" style="endArrow=none;dashed=1;html=1;strokeColor=#000000;" edge="1" parent="1">
          <mxGeometry width="50" height="50" relative="1" as="geometry">
            <mxPoint x="700" y="380" as="sourcePoint" />
            <mxPoint x="980" y="380" as="targetPoint" />
          </mxGeometry>
        </mxCell>
        <mxCell id="Qj1fwdqKHC8h-Qbw6WAU-89" value="Private Subnet" style="text;html=1;strokeColor=none;fillColor=none;align=center;verticalAlign=middle;whiteSpace=wrap;rounded=0;" vertex="1" parent="1">
          <mxGeometry x="130" y="270" width="120" height="10" as="geometry" />
        </mxCell>
        <mxCell id="Qj1fwdqKHC8h-Qbw6WAU-91" value="Private Subnet" style="text;html=1;strokeColor=none;fillColor=none;align=center;verticalAlign=middle;whiteSpace=wrap;rounded=0;" vertex="1" parent="1">
          <mxGeometry x="710" y="270" width="120" height="10" as="geometry" />
        </mxCell>
        <mxCell id="Qj1fwdqKHC8h-Qbw6WAU-92" value="" style="endArrow=none;dashed=1;html=1;strokeColor=#000000;" edge="1" parent="1" target="Qj1fwdqKHC8h-Qbw6WAU-91">
          <mxGeometry width="50" height="50" relative="1" as="geometry">
            <mxPoint x="700" y="280" as="sourcePoint" />
            <mxPoint x="980" y="280" as="targetPoint" />
          </mxGeometry>
        </mxCell>
        <mxCell id="Qj1fwdqKHC8h-Qbw6WAU-97" value="ECS&lt;br&gt;Fargate" style="text;html=1;strokeColor=none;fillColor=none;align=center;verticalAlign=middle;whiteSpace=wrap;rounded=0;" vertex="1" parent="1">
          <mxGeometry x="340" y="310" width="40" height="20" as="geometry" />
        </mxCell>
        <mxCell id="Qj1fwdqKHC8h-Qbw6WAU-98" value="Jenkins Master" style="text;html=1;strokeColor=none;fillColor=none;align=center;verticalAlign=middle;whiteSpace=wrap;rounded=0;" vertex="1" parent="1">
          <mxGeometry x="190" y="310" width="40" height="20" as="geometry" />
        </mxCell>
      </root>
    </mxGraphModel>
  </diagram>
</mxfile>
